<?xml version="1.0" encoding="UTF-8"?>
<svg width="20px" height="15px" viewBox="0 0 20 15" version="1.1" xmlns="http://www.w3.org/2000/svg" xmlns:xlink="http://www.w3.org/1999/xlink">
    <!-- Generator: Sketch 53.2 (72643) - https://sketchapp.com -->
    <title>logo</title>
    <desc>Created with Sketch.</desc>
    <g id="Page-1" stroke="none" stroke-width="1" fill="none" fill-rule="evenodd">
        <g id="layers" fill-rule="nonzero">
            <polygon id="Shape" fill="#5798E5" points="10 8 18 4.5 10 1 2 4.5"></polygon>
            <path d="M10,9 C9.934,9 9.868,8.987 9.806,8.961 L0.306,4.961 C0.121,4.883 0,4.701 0,4.5 C0,4.299 0.121,4.117 0.306,4.039 L9.806,0.039 C9.93,-0.013 10.07,-0.013 10.194,0.039 L19.694,4.039 C19.879,4.117 20,4.299 20,4.5 C20,4.701 19.879,4.883 19.694,4.961 L10.194,8.961 C10.132,8.987 10.066,9 10,9 Z M10.212,7.914 L18.424,4.457 L10.212,1 L2,4.457 L10.212,7.914 Z" id="Shape" fill="#97BEEC"></path>
            <path d="M10,12 C9.934,12 9.868,11.987 9.806,11.961 L0.306,7.961 C0.052,7.854 -0.068,7.561 0.039,7.306 C0.146,7.051 0.439,6.932 0.694,7.039 L10,10.957 L19.306,7.039 C19.56,6.932 19.854,7.051 19.961,7.306 C20.068,7.561 19.949,7.854 19.694,7.961 L10.194,11.961 C10.132,11.987 10.066,12 10,12 Z" id="Path" fill="#5798E5"></path>
            <path d="M10,15 C9.934,15 9.868,14.987 9.806,14.961 L0.306,10.961 C0.052,10.854 -0.068,10.561 0.039,10.306 C0.146,10.051 0.439,9.932 0.694,10.039 L10,13.957 L19.306,10.039 C19.56,9.932 19.854,10.051 19.961,10.306 C20.068,10.561 19.949,10.854 19.694,10.961 L10.194,14.961 C10.132,14.987 10.066,15 10,15 Z" id="Path" fill="#074287"></path>
        </g>
    </g>
</svg>